<svg xmlns="http://www.w3.org/2000/svg" width="93" height="38" viewBox="0 0 93 38">
    <g fill="#FFF" fill-rule="evenodd" opacity=".4">
        <path d="M25.095 37.41a40.385 40.385 0 0 1-16.417-3.054c-4.513-2.045-7.4-4.958-8.355-8.425a9.735 9.735 0 0 1-.136-4.385 13.43 13.43 0 0 1 1.767-4.407c2.032-3.343 5.563-6.56 10.21-9.3a57.862 57.862 0 0 1 16.745-6.392A62.267 62.267 0 0 1 42.047.003a40.477 40.477 0 0 1 16.429 3.054c4.525 2.046 7.421 4.96 8.375 8.425.38 1.44.425 2.95.131 4.411a13.519 13.519 0 0 1-1.789 4.439c-2.045 3.349-5.576 6.563-10.214 9.3a57.113 57.113 0 0 1-16.714 6.342 62.66 62.66 0 0 1-13.17 1.436zM14.018 10.654a5.055 5.055 0 0 0-3.6 1.2 5.452 5.452 0 0 0-1.412 4.117v5.617c0 3.478 1.687 5.242 5.014 5.242a5.114 5.114 0 0 0 3.627-1.133 5.321 5.321 0 0 0 1.385-4.109v-5.617c-.003-3.578-1.642-5.317-5.014-5.317zm37.115 5.472v10.328h2.769v-15.5h-3.218l-3.892 10.407V10.956h-2.769v15.5h3.145l3.965-10.33zm-15.266-2.851v13.179h2.919V13.275h3.667v-2.32H32.2v2.32h3.667zm-12.048 0h3.892v13.179h2.92v-15.5h-9.728v15.5h2.916V13.275zm-9.728 11.158c-1.36 0-2.021-.808-2.021-2.47v-6.365c0-1.69.718-2.621 2.021-2.621 1.254 0 1.944.931 1.944 2.621v6.364c.001 1.64-.653 2.471-1.943 2.471h-.001zM70.741 26.529v-2.1l1.871-1.947c2.395-2.546 4.415-4.568 4.415-6.814a2.1 2.1 0 0 0-2.395-2.1c-.99.05-1.958.305-2.844.749l-.6-2.321a9.862 9.862 0 0 1 4.193-.967c4.116 0 5.388 2.246 5.388 4.418 0 2.845-2.17 5.167-4.34 7.189l-1.123 1.048v.075h5.762v2.7H70.741v.07zM87.654 20.463v-3.145c0-.824.15-1.722.225-2.546h-.15c-.449.824-.823 1.5-1.272 2.4l-2.021 3.22v.075l3.218-.004zm0 6.065V22.86h-6.436v-2.1l6.136-9.507h3.592v9.136h1.872v2.471h-1.871v3.669l-3.293-.001z"/>
    </g>
</svg>
