<svg xmlns="http://www.w3.org/2000/svg" width="78" height="38" viewBox="0 0 78 38">
    <g fill="#FFF" fill-rule="evenodd">
        <path d="M63.769 23.101a.54.54 0 0 1-.558-.518v-8.844a.559.559 0 0 1 1.1 0v8.844a.538.538 0 0 1-.555.518m1.036-11.439h-2.063c-1.755 0-1.86 1.419-1.86 2.332v8.387c0 .916.1 2.333 1.86 2.333h2.076c1.756 0 1.864-1.417 1.864-2.333v-8.387c0-.915-.107-2.332-1.864-2.332M25.934 11.662h4.785v1.621h-2.278v11.43h-2.507zM31.061 24.713h2.454l.235-3.469h1.183l.232 3.469h2.45l-1.308-13.052H32.37l-1.309 13.052zm2.774-4.9l.432-6.529h.14l.43 6.529h-1.002zM41.172 20.144v2.457a.394.394 0 0 0 .393.431.413.413 0 0 0 .393-.431v-3.035c0-.409-.07-.855-1.005-.855h-1.016v-1.437h1.052c.715 0 .968-.171.968-.968v-2.6a.409.409 0 0 0-.393-.426.391.391 0 0 0-.393.426v2.129h-2.507v-1.84c0-.914.109-2.332 1.862-2.332h2.079c1.755 0 1.862 1.419 1.862 2.332v2.09a1.567 1.567 0 0 1-1.7 1.768v.131a1.534 1.534 0 0 1 1.7 1.772v2.626c0 .916-.107 2.333-1.862 2.333h-2.079c-1.753 0-1.862-1.417-1.862-2.333v-2.237h2.508v-.001zM46.083 11.662h5.8v13.052h-2.338V13.283H48.42v11.43h-2.337zM53.666 24.714h2.506v-4.437h1.432c1.755 0 2.035-1.417 2.035-2.334v-3.95c0-.914-.279-2.332-2.035-2.332h-3.938v13.053zm2.506-5.875v-5.555h.658c.272 0 .469.242.469.65v4.255c0 .41-.2.65-.469.65h-.658zM74.667 11.662h3.26v13.052h-2.508v-8.189h-.09l-1.292 8.184h-2l-1.292-8.184h-.087v8.184h-2.509V11.662h3.257l1.627 9.173zM20.635 12.977a18.82 18.82 0 0 1-.388 3.554c.05-1.695-.095-3.39-.433-5.051a21.932 21.932 0 0 0-2.016-5.454 21.8 21.8 0 0 0-1.985 5.441 25.533 25.533 0 0 0-.461 5.112 25.185 25.185 0 0 1-.331-4.952c.084-1.518.325-3.024.719-4.492A24.283 24.283 0 0 1 17.798 2.2a22.167 22.167 0 0 1 2.088 4.864c.52 1.927.772 3.918.748 5.914m-2.82 10.128a9.449 9.449 0 0 1-1.052-4.282 8.97 8.97 0 0 1 1.065-4.248 9.659 9.659 0 0 1 1.021 4.059 9.138 9.138 0 0 1-1.034 4.471m3.049-16.014A21.923 21.923 0 0 0 17.814.344a23.37 23.37 0 0 0-2.821 5.9 21.406 21.406 0 0 0-.706 8.506c.26 1.868.744 3.698 1.441 5.45a19.123 19.123 0 0 0 2.1 3.767 20.412 20.412 0 0 0 3.469-8.846c.4-2.678.252-5.41-.433-8.03"/>
        <path d="M13.017 24.723v4.1a3.682 3.682 0 0 1 5.211-.016 3.644 3.644 0 0 1 0 5.174l-.017.017A7.327 7.327 0 0 1 6.93 24.755c.263-.391.565-.755.9-1.086a7.325 7.325 0 0 1 5.188-2.14v-9.783a13.015 13.015 0 1 0 9.537 21.909v-8.932h-9.538zM75.585 34.692c0 1.242-.565 1.462-2 1.462H72.26v-5.667h1.322v2.187h.221c1.3 0 1.782.3 1.782 1.436v.582zm-11.04-3.133h-1v4.6h-1.261v-4.6H61.21v-1.077h3.336v1.077h-.001zm-10.18 2.574c0 1.151-.585 1.46-1.888 1.46v.561H51.19v-.561c-1.308 0-1.9-.309-1.9-1.46v-1.774c0-1.156.567-1.449 1.9-1.449v-.425h1.286v.425c1.322 0 1.888.294 1.888 1.449l.001 1.774zm-11.994-2.574h-1.81v1.115h1.619v1.073h-1.619v1.336h1.81v1.076h-3.176v-5.678h3.176v1.078zm-10.973 4.594h-1.324v-2.481h-.68v2.481h-1.323v-5.666h1.323v2.187h.68v-2.187h1.324v5.666zm46.53-7.08h-52.2v8.7h52.2v-8.7zm-27.35 3.252v1.814c0 .333.107.41.4.41h.213v-2.641h-.215c-.291 0-.4.085-.4.417h.002zm23.298 1.348h-.295v1.479h.295c.3 0 .386-.076.386-.4v-.681c0-.326-.089-.4-.386-.4v.002zm-21.2-1.766h-.2v2.641h.2c.295 0 .4-.085.4-.418v-1.82c0-.333-.106-.4-.4-.4v-.003z"/>
    </g>
</svg>
