<svg xmlns="http://www.w3.org/2000/svg" width="93" height="38" viewBox="0 0 93 38">
    <g fill="none" fill-rule="evenodd">
        <path fill="#005DB4" d="M28.909 1.606C10.575 5.649-2.222 16.582.323 26.09c2.619 9.51 19.532 14 37.941 10.034C56.598 32.157 69.394 21.15 66.85 11.64 64.231 2.13 47.244-2.363 28.909 1.606"/>
        <path fill="#FFF" d="M53.903 26.616h-2.769V16.283l-3.966 10.333h-3.143v-15.5h2.769v10.409l3.891-10.409h3.218zM42.454 13.437h-3.667v13.179h-2.918V13.437h-3.667v-2.321h10.252zM30.63 26.616h-2.918V13.437h-3.891v13.179h-2.919v-15.5h9.728zM16.037 22.123c0 1.647-.674 2.471-1.946 2.471-1.422 0-2.021-.9-2.021-2.471v-6.365c0-1.647.674-2.621 2.021-2.621 1.272 0 1.946.973 1.946 2.621v6.365zm-2.02-11.307c-2.914 0-5.014 1.423-5.014 5.317v5.616c0 3.894 2.1 5.242 5.014 5.242 2.993 0 5.014-1.273 5.014-5.242v-5.616c0-3.969-2.021-5.317-5.014-5.317zM70.741 26.691v-2.1l1.871-1.947c2.395-2.546 4.415-4.568 4.415-6.814a2.1 2.1 0 0 0-2.395-2.1c-.99.05-1.958.305-2.844.749l-.6-2.321a9.862 9.862 0 0 1 4.193-.967c4.116 0 5.388 2.246 5.388 4.418 0 2.845-2.17 5.167-4.34 7.189l-1.123 1.048v.075h5.762v2.7H70.741v.07zM87.654 20.625V17.48c0-.824.15-1.722.225-2.546h-.15c-.449.824-.823 1.5-1.272 2.4l-2.021 3.22v.075l3.218-.004zm0 6.065v-3.668h-6.436v-2.1l6.136-9.507h3.592v9.136h1.872v2.471h-1.871v3.669l-3.293-.001z"/>
    </g>
</svg>
